<svg width="716" height="528" viewBox="0 0 716 528" fill="none" xmlns="http://www.w3.org/2000/svg">
<g clip-path="url(#clip0)">
<path opacity="0.1" d="M7.70654 253.143C19.0126 296.826 42.9266 334.587 80.7177 352.891C159.281 390.933 336.462 371.313 468.698 348.792C537.101 337.144 597.224 304.999 640.899 259.761L7.70654 253.143Z" fill="#673AB7"/>
<path opacity="0.1" d="M701.146 47.522H628.591C625.148 47.522 622.323 44.9712 622.323 41.8543C622.323 38.7373 625.148 36.18 628.591 36.18H641.14C637.69 36.18 634.872 33.6292 634.872 30.5057C634.872 27.3823 637.69 24.838 641.14 24.838H632.184C628.734 24.838 625.909 22.2871 625.909 19.1637C625.909 16.0402 628.734 13.4959 632.184 13.4959H670.053C661.65 9.96253 651.828 7.45075 640.509 6.12979C537.244 -5.86297 500.377 2.0693 487.372 10.2228C471.162 20.5123 453.156 27.6519 434.298 31.2671C370.588 43.1557 251.442 57.4585 143.451 26.712C89.7782 11.4006 49.8847 37.2407 25.9773 80.4354H713.748C712.85 67.883 710.161 56.2872 705.228 46.1425C704.059 47.0444 702.623 47.53 701.146 47.522V47.522Z" fill="#673AB7"/>
<path opacity="0.1" d="M1.55559 161.964C-1.23125 187.369 -0.283922 213.045 4.36747 238.176L641.388 259.253C658.923 241.071 673.822 220.521 685.649 198.203L1.55559 161.964ZM253.505 216.332H240.962C244.412 216.332 247.237 218.889 247.237 222.006C247.237 225.123 244.412 227.674 240.962 227.674H168.407C164.963 227.674 162.138 225.123 162.138 222.006C162.138 218.889 164.963 216.332 168.407 216.332H180.956C177.506 216.332 174.688 213.781 174.688 210.664C174.688 207.547 177.506 204.99 180.956 204.99H171.993C168.543 204.99 165.718 202.439 165.718 199.322C165.718 196.205 168.543 193.647 171.993 193.647H244.549C247.998 193.647 250.817 196.198 250.817 199.322C250.817 202.445 247.998 204.99 244.549 204.99H253.505C256.955 204.99 259.773 207.54 259.773 210.664C259.773 213.787 256.955 216.332 253.505 216.332Z" fill="#673AB7"/>
<path opacity="0.1" d="M713.774 80.8258L18.3032 96.1177C9.84152 115.789 4.23079 138.031 1.64673 161.079H701.589C706.144 147.594 709.524 133.741 711.691 119.674C713.78 106.132 714.613 93.0333 713.774 80.8258ZM142.852 130.964H130.31C133.759 130.964 136.584 133.521 136.584 136.638C136.584 139.755 133.759 142.312 130.31 142.312H57.7541C54.3108 142.312 51.4859 139.755 51.4859 136.638C51.4859 133.521 54.3108 130.964 57.7541 130.964H70.3034C66.8536 130.964 64.0352 128.413 64.0352 125.296C64.0352 122.179 66.8536 119.622 70.3034 119.622H61.3405C57.8908 119.622 55.0659 117.071 55.0659 113.954C55.0659 110.837 57.8908 108.28 61.3405 108.28H133.896C137.346 108.28 140.164 110.83 140.164 113.954C140.164 117.077 137.346 119.622 133.896 119.622H142.852C146.302 119.622 149.121 122.179 149.121 125.296C149.121 128.413 146.302 130.964 142.852 130.964Z" fill="#673AB7"/>
<path opacity="0.1" d="M354.791 508.264C515.472 508.264 645.729 496.284 645.729 481.506C645.729 466.728 515.472 454.749 354.791 454.749C194.11 454.749 63.853 466.728 63.853 481.506C63.853 496.284 194.11 508.264 354.791 508.264Z" fill="#673AB7"/>
<path d="M337.809 496.688C448.709 496.688 538.611 406.81 538.611 295.941C538.611 185.071 448.709 95.1937 337.809 95.1937C226.909 95.1937 137.007 185.071 137.007 295.941C137.007 406.81 226.909 496.688 337.809 496.688Z" fill="#673AB7"/>
<path d="M443.17 396.822C443.17 428.512 393.337 399.529 339.912 399.529C286.486 399.529 232.448 427.314 232.448 395.624C232.448 377.554 249.671 352.423 274.379 334.17C292.995 320.414 315.854 310.562 338.818 310.562C362.433 310.562 385.566 321.227 404.018 335.869C427.308 354.33 443.17 379.135 443.17 396.822Z" fill="#444053"/>
<path d="M404.012 335.856C375.613 331.58 324.251 326.368 274.379 334.157C292.995 320.401 315.854 310.549 338.818 310.549C362.426 310.549 385.559 321.214 404.012 335.856Z" fill="#F6F8FB"/>
<path opacity="0.05" d="M232.448 154.233C232.448 154.233 171.96 192.893 172.455 253.364C172.95 313.835 232.448 154.233 232.448 154.233Z" fill="black"/>
<path d="M538.533 45.0492C538.533 45.0492 483.727 41.7501 490.191 80.1425C490.191 80.1425 488.889 86.923 495.059 90.0074C495.059 90.0074 495.157 87.1638 500.677 88.1268C502.644 88.4558 504.643 88.5519 506.632 88.4132C509.321 88.2304 511.876 87.1748 513.909 85.4068V85.4068C513.909 85.4068 529.316 79.0493 535.311 53.873C535.311 53.873 539.744 48.3809 539.568 46.9754L530.319 50.9187C530.319 50.9187 533.475 57.5886 530.969 63.1327C530.969 63.1327 530.67 51.166 528.893 51.4198C528.535 51.4783 524.089 53.7298 524.089 53.7298C524.089 53.7298 529.524 65.3517 525.391 73.7915C525.391 73.7915 526.947 59.4757 522.358 54.5693L515.849 58.3695C515.849 58.3695 522.202 70.3687 517.893 80.162C517.893 80.162 518.999 65.1434 514.482 59.2935L508.579 63.8941C508.579 63.8941 514.547 75.7241 510.909 83.8451C510.909 83.8451 510.434 66.3603 507.303 65.0393C507.303 65.0393 502.141 69.5944 501.354 71.4619C501.354 71.4619 505.441 80.0449 502.909 84.5739C502.909 84.5739 501.354 72.926 500.078 72.861C500.078 72.861 494.936 80.5785 494.395 85.8753C494.395 85.8753 494.623 78.0017 498.828 72.1257C498.828 72.1257 493.855 72.9781 490.959 76.2057C490.959 76.2057 491.759 70.7461 500.071 70.2711C500.071 70.2711 504.322 64.4146 505.461 64.0633C505.461 64.0633 497.162 63.367 492.13 65.5989C492.13 65.5989 496.556 60.4518 506.977 62.7878L512.835 58.0376C512.835 58.0376 501.913 56.5409 497.279 58.1938C497.279 58.1938 502.61 53.6387 514.404 56.9574L520.75 53.1637C520.75 53.1637 511.436 51.1595 505.884 51.8623C505.884 51.8623 511.742 48.7063 522.605 52.1291L527.162 50.0923C527.162 50.0923 520.334 48.7518 518.336 48.5436C516.337 48.3354 516.233 47.7757 516.233 47.7757C520.569 47.0709 525.016 47.5869 529.075 49.2659C529.075 49.2659 538.696 45.6544 538.533 45.0492Z" fill="#673AB7"/>
<path d="M482.321 27.9809C482.321 27.9809 457.587 26.4842 460.477 43.8324C460.477 43.8324 459.898 46.8973 462.677 48.2898C462.677 48.2898 462.716 46.9884 465.216 47.4439C466.104 47.59 467.006 47.6337 467.904 47.5741C469.12 47.4873 470.275 47.0103 471.198 46.214V46.214C471.198 46.214 478.156 43.3379 480.863 31.9633C480.863 31.9633 482.868 29.4841 482.816 28.8464L478.637 30.6293C478.637 30.6293 480.069 33.6421 478.943 36.1474C478.943 36.1474 478.807 30.7399 478.006 30.8701C477.843 30.8701 475.832 31.9112 475.832 31.9112C475.832 31.9112 478.292 37.1625 476.437 40.9758C476.437 40.9758 477.14 34.5076 475.07 32.2887L472.128 34.0066C472.128 34.0066 474.999 39.4336 473.053 43.8584C473.053 43.8584 473.547 37.0714 471.51 34.4295L468.841 36.5053C468.841 36.5053 471.536 41.8477 469.896 45.5178C469.896 45.5178 469.681 37.618 468.262 37.0194C468.262 37.0194 465.932 39.0757 465.574 39.9216C465.574 39.9216 467.422 43.8259 466.277 45.8496C466.277 45.8496 465.574 40.5853 464.975 40.5658C464.975 40.5658 462.651 44.0472 462.41 46.4223C462.522 44.2119 463.211 42.0695 464.409 40.2079C463.069 40.4612 461.834 41.1015 460.855 42.0494C460.855 42.0494 461.213 39.5832 464.982 39.3685C464.982 39.3685 466.902 36.7266 467.416 36.5639C467.416 36.5639 463.667 36.2515 461.395 37.2602C461.395 37.2602 463.393 34.9306 468.106 35.9587L470.709 33.8178C470.709 33.8178 465.776 33.1671 463.68 33.8829C463.68 33.8829 466.088 31.8266 471.419 33.3298L474.283 31.6119C474.283 31.6119 470.078 30.7074 467.566 31.0328C467.566 31.0328 470.215 29.6077 475.123 31.1564L477.173 30.2324C477.173 30.2324 474.088 29.6272 473.189 29.5361C472.291 29.445 472.233 29.1912 472.233 29.1912C474.187 28.8663 476.192 29.0916 478.026 29.842C478.026 29.842 482.393 28.2542 482.321 27.9809Z" fill="#673AB7"/>
<path opacity="0.1" d="M698.471 475.031C708.152 475.031 716 473.706 716 472.071C716 470.436 708.152 469.11 698.471 469.11C688.79 469.11 680.943 470.436 680.943 472.071C680.943 473.706 688.79 475.031 698.471 475.031Z" fill="#673AB7"/>
<path opacity="0.1" d="M30.4425 524.284C40.1233 524.284 47.9711 522.959 47.9711 521.324C47.9711 519.688 40.1233 518.363 30.4425 518.363C20.7617 518.363 12.9138 519.688 12.9138 521.324C12.9138 522.959 20.7617 524.284 30.4425 524.284Z" fill="#673AB7"/>
<path opacity="0.1" d="M132.197 528C141.878 528 149.726 526.674 149.726 525.039C149.726 523.404 141.878 522.078 132.197 522.078C122.517 522.078 114.669 523.404 114.669 525.039C114.669 526.674 122.517 528 132.197 528Z" fill="#673AB7"/>
<path d="M660.107 508.225C674.562 508.225 686.28 506.244 686.28 503.8C686.28 501.356 674.562 499.375 660.107 499.375C645.653 499.375 633.935 501.356 633.935 503.8C633.935 506.244 645.653 508.225 660.107 508.225Z" fill="#673AB7"/>
<path d="M670.925 496.57C672.12 495.596 672.991 494.282 673.425 492.803C673.744 491.313 673.106 489.517 671.68 488.97C670.079 488.358 668.367 489.471 667.072 490.59C665.777 491.709 664.286 492.985 662.587 492.751C663.461 491.96 664.115 490.956 664.484 489.837C664.854 488.718 664.927 487.523 664.696 486.367C664.622 485.888 664.42 485.439 664.11 485.066C663.219 484.116 661.611 484.519 660.544 485.267C657.159 487.649 656.215 492.243 656.195 496.382C655.857 494.891 656.143 493.336 656.137 491.827C656.13 490.317 655.707 488.573 654.419 487.773C653.619 487.346 652.721 487.135 651.815 487.161C650.292 487.102 648.6 487.252 647.558 488.365C646.256 489.751 646.601 492.067 647.727 493.571C648.853 495.074 650.559 496.05 652.127 497.097C653.39 497.848 654.467 498.873 655.278 500.097C655.373 500.27 655.451 500.45 655.512 500.637H665.048C667.181 499.553 669.159 498.185 670.925 496.57V496.57Z" fill="#673AB7"/>
<path d="M38.6243 442.007C38.6243 442.007 42.1977 446.68 36.971 453.72C31.7443 460.761 27.4354 466.735 29.1602 471.134C29.1602 471.134 37.0426 458.028 43.48 457.839C49.9173 457.651 45.68 449.888 38.6243 442.007Z" fill="#673AB7"/>
<path opacity="0.1" d="M38.6242 442.007C38.9345 442.459 39.1799 442.952 39.3532 443.472C45.6148 450.825 48.9474 457.69 42.9331 457.859C37.3224 458.022 30.5661 468.043 28.9844 470.574C29.0397 470.77 29.1048 470.964 29.1796 471.153C29.1796 471.153 37.062 458.048 43.4994 457.859C49.9368 457.67 45.6799 449.888 38.6242 442.007Z" fill="black"/>
<path d="M45.27 447.962C45.27 449.608 45.0812 450.942 44.8534 450.942C44.6256 450.942 44.4434 449.64 44.4434 447.962C44.4434 446.283 44.6712 447.09 44.9055 447.09C45.1398 447.09 45.27 446.315 45.27 447.962Z" fill="#FFD037"/>
<path d="M47.522 449.927C46.077 450.714 44.8208 451.189 44.7101 450.987C44.5995 450.786 45.6865 449.992 47.1315 449.204C48.5765 448.417 48.0037 448.99 48.1143 449.204C48.225 449.419 48.993 449.139 47.522 449.927Z" fill="#FFD037"/>
<path d="M19.7353 442.007C19.7353 442.007 16.1619 446.68 21.3821 453.72C26.6023 460.761 30.9177 466.735 29.1928 471.134C29.1928 471.134 21.304 458.028 14.8731 457.839C8.44224 457.651 12.6731 449.888 19.7353 442.007Z" fill="#673AB7"/>
<path opacity="0.1" d="M19.7352 442.007C19.422 442.457 19.1764 442.951 19.0062 443.472C12.7446 450.825 9.40548 457.69 15.4263 457.859C21.0305 458.022 27.7933 468.043 29.3685 470.574C29.3154 470.77 29.2524 470.963 29.1797 471.153C29.1797 471.153 21.2909 458.048 14.86 457.859C8.42913 457.67 12.673 449.888 19.7352 442.007Z" fill="black"/>
<path d="M13.0896 447.962C13.0896 449.608 13.2719 450.942 13.4997 450.942C13.7275 450.942 13.9097 449.64 13.9097 447.962C13.9097 446.283 13.6819 447.09 13.4541 447.09C13.2263 447.09 13.0896 446.315 13.0896 447.962Z" fill="#FFD037"/>
<path d="M10.805 449.927C12.2499 450.714 13.5127 451.189 13.6233 450.987C13.734 450.786 12.647 449.992 11.202 449.204C9.75701 448.417 10.3233 448.99 10.2191 449.204C10.115 449.419 9.35996 449.139 10.805 449.927Z" fill="#FFD037"/>
<path d="M14.2285 470.542C14.2285 470.542 24.2263 470.236 27.2465 468.088C30.2666 465.941 42.6272 463.384 43.3757 466.787C44.1242 470.19 58.3984 483.901 47.1118 483.992C35.8253 484.083 20.8872 482.228 17.88 480.4C14.8729 478.571 14.2285 470.542 14.2285 470.542Z" fill="#A8A8A8"/>
<path opacity="0.2" d="M47.3006 482.827C36.0141 482.918 21.076 481.064 18.0688 479.235C15.7777 477.843 14.8664 472.839 14.5605 470.529H14.2285C14.2285 470.529 14.8794 478.591 17.867 480.419C20.8547 482.248 35.8123 484.103 47.0988 484.011C50.3533 484.011 51.4794 482.821 51.4208 481.109C50.9652 482.157 49.7285 482.808 47.3006 482.827Z" fill="black"/>
<path d="M266.419 269.619C270.24 269.404 288.224 268.051 299.647 261.537C301.482 260.458 303.554 259.848 305.681 259.761C309.313 259.656 313.492 261.173 310.817 269.658C306.482 283.538 281.311 299.155 265.69 298.29C250.667 297.457 232.846 291.405 221.077 270.127C219.95 268.079 219.394 265.766 219.47 263.431C219.606 259.136 221.168 253.754 229.233 259.754C240.129 267.856 260.802 269.391 264.948 269.619C265.438 269.645 265.929 269.645 266.419 269.619V269.619Z" fill="#444053"/>
<path d="M410.918 269.619C414.739 269.404 432.723 268.051 444.146 261.537C445.981 260.458 448.053 259.848 450.18 259.761C453.812 259.656 457.991 261.173 455.316 269.658C450.981 283.538 425.81 299.155 410.189 298.29C395.166 297.457 377.345 291.405 365.576 270.127C364.449 268.079 363.893 265.766 363.969 263.431C364.105 259.136 365.667 253.754 373.732 259.754C384.628 267.856 405.301 269.391 409.447 269.619C409.937 269.645 410.428 269.645 410.918 269.619V269.619Z" fill="#444053"/>
</g>
<defs>
<clipPath id="clip0">
<rect width="716" height="528" fill="white"/>
</clipPath>
</defs>
</svg>
