<svg width="496" height="465" viewBox="0 0 496 465" fill="none" xmlns="http://www.w3.org/2000/svg">
<path opacity="0.2" d="M366.631 352.86L116.782 417.199C108.307 419.371 99.3164 418.093 91.7825 413.645C84.2486 409.196 78.7868 401.941 76.5955 393.471L1.03457 100.044C-1.13768 91.5686 0.140563 82.5778 4.58889 75.0439C9.03721 67.5101 16.2923 62.0483 24.7626 59.8569L257.206 0L316.701 26.6338L390.359 312.673C392.532 321.148 391.253 330.139 386.805 337.673C382.357 345.207 375.101 350.669 366.631 352.86Z" fill="#AB8CE0" fill-opacity="0.9"/>
<path d="M316.066 28.1475L277.399 38.1048C274.576 38.8318 271.58 38.4075 269.07 36.9255C266.56 35.4434 264.741 33.025 264.014 30.2021L256.66 1.64288C256.628 1.51785 256.631 1.38627 256.671 1.26324C256.71 1.14021 256.783 1.03071 256.881 0.947295C256.98 0.863877 257.1 0.809918 257.228 0.79161C257.356 0.773302 257.486 0.791381 257.604 0.84378L316.174 26.8545C316.304 26.9124 316.413 27.0094 316.486 27.1321C316.558 27.2548 316.591 27.3971 316.579 27.5392C316.567 27.6813 316.512 27.8163 316.42 27.9253C316.328 28.0343 316.204 28.112 316.066 28.1475Z" fill="#F2F2F2"/>
<path d="M295.723 278.728L181.971 308.021C181.272 308.201 180.544 308.241 179.83 308.14C179.115 308.039 178.428 307.798 177.806 307.431C177.185 307.064 176.642 306.578 176.208 306.002C175.774 305.425 175.458 304.768 175.278 304.069C175.098 303.37 175.058 302.643 175.159 301.928C175.26 301.214 175.501 300.526 175.868 299.905C176.235 299.283 176.721 298.74 177.297 298.307C177.874 297.873 178.531 297.557 179.23 297.377L292.982 268.084C293.681 267.905 294.409 267.864 295.123 267.965C295.838 268.066 296.525 268.307 297.147 268.674C297.768 269.041 298.311 269.527 298.745 270.104C299.179 270.68 299.495 271.337 299.675 272.036C299.855 272.735 299.895 273.462 299.794 274.177C299.693 274.891 299.452 275.579 299.085 276.2C298.718 276.822 298.232 277.365 297.656 277.798C297.079 278.232 296.422 278.548 295.723 278.728Z" fill="#CCCCCC"/>
<path d="M322.301 291.036L186.596 325.982C185.184 326.345 183.686 326.133 182.431 325.392C181.176 324.651 180.267 323.442 179.904 322.03C179.54 320.619 179.752 319.121 180.493 317.866C181.234 316.611 182.444 315.702 183.855 315.338L319.56 280.392C320.971 280.031 322.468 280.244 323.722 280.985C324.976 281.726 325.884 282.934 326.247 284.345C326.611 285.756 326.399 287.253 325.659 288.507C324.919 289.762 323.711 290.672 322.301 291.036Z" fill="#CCCCCC"/>
<path d="M135.543 343.301C146.27 343.301 154.966 334.605 154.966 323.878C154.966 313.15 146.27 304.454 135.543 304.454C124.816 304.454 116.12 313.15 116.12 323.878C116.12 334.605 124.816 343.301 135.543 343.301Z" fill="#E6E6E6"/>
<path d="M283.628 227.896L132.553 266.785C128.187 267.904 123.556 267.245 119.675 264.953C115.794 262.661 112.98 258.924 111.852 254.56L80.1923 131.57C79.0736 127.203 79.7325 122.572 82.0244 118.691C84.3163 114.81 88.0541 111.997 92.4176 110.868L243.493 71.9792C247.859 70.8606 252.49 71.5195 256.371 73.8114C260.252 76.1033 263.065 79.8411 264.194 84.2046L295.854 207.195C296.972 211.561 296.313 216.193 294.021 220.074C291.729 223.955 287.992 226.768 283.628 227.896Z" fill="white"/>
<path d="M283.628 227.896L132.553 266.785C128.187 267.904 123.556 267.245 119.675 264.953C115.794 262.661 112.98 258.924 111.852 254.56L80.1923 131.57C79.0736 127.203 79.7325 122.572 82.0244 118.691C84.3163 114.81 88.0541 111.997 92.4176 110.868L243.493 71.9792C247.859 70.8606 252.49 71.5195 256.371 73.8114C260.252 76.1033 263.065 79.8411 264.194 84.2046L295.854 207.195C296.972 211.561 296.313 216.193 294.021 220.074C291.729 223.955 287.992 226.768 283.628 227.896ZM92.9163 112.805C89.0661 113.801 85.7681 116.283 83.7458 119.708C81.7235 123.132 81.1421 127.219 82.1292 131.071L113.789 254.061C114.785 257.912 117.267 261.21 120.691 263.232C124.116 265.254 128.202 265.836 132.055 264.849L283.13 225.959C286.98 224.964 290.278 222.481 292.3 219.057C294.322 215.633 294.904 211.546 293.917 207.694L262.257 84.7032C261.261 80.853 258.779 77.555 255.355 75.5327C251.93 73.5105 247.844 72.9291 243.991 73.9161L92.9163 112.805Z" fill="#E6E6E6"/>
<path d="M235.828 113.333L159.583 132.96C158.916 133.146 158.204 133.072 157.59 132.753C156.976 132.434 156.505 131.894 156.274 131.242C156.167 130.901 156.13 130.542 156.166 130.186C156.201 129.831 156.309 129.486 156.483 129.174C156.656 128.861 156.891 128.587 157.174 128.369C157.457 128.15 157.781 127.992 158.127 127.902L235.74 107.924C238.876 109.512 238.051 112.761 235.827 113.334L235.828 113.333Z" fill="#F2F2F2"/>
<path d="M239.271 136.707L163.025 156.334C162.359 156.52 161.646 156.446 161.032 156.127C160.418 155.808 159.948 155.268 159.717 154.616C159.609 154.275 159.572 153.916 159.608 153.56C159.644 153.205 159.752 152.86 159.925 152.548C160.099 152.235 160.334 151.961 160.617 151.743C160.899 151.524 161.224 151.366 161.57 151.276L239.183 131.298C242.318 132.886 241.493 136.135 239.27 136.708L239.271 136.707Z" fill="#F2F2F2"/>
<path d="M148.503 158.192L125.234 164.182C124.474 164.377 123.667 164.262 122.992 163.863C122.316 163.464 121.827 162.813 121.63 162.054L114.562 134.594C114.367 133.834 114.482 133.028 114.881 132.352C115.28 131.677 115.93 131.187 116.69 130.991L139.959 125.001C140.719 124.806 141.525 124.921 142.201 125.32C142.876 125.719 143.366 126.369 143.562 127.129L150.631 154.589C150.826 155.349 150.711 156.155 150.312 156.83C149.913 157.506 149.263 157.996 148.503 158.192Z" fill="#E6E6E6"/>
<path d="M246.098 154.148L129.733 184.102C129.067 184.288 128.354 184.214 127.74 183.895C127.126 183.576 126.656 183.036 126.425 182.383C126.317 182.043 126.28 181.684 126.316 181.328C126.352 180.972 126.46 180.628 126.633 180.315C126.807 180.003 127.042 179.729 127.325 179.511C127.607 179.292 127.932 179.133 128.278 179.044L246.011 148.738C249.146 150.326 248.321 153.576 246.098 154.148Z" fill="#F2F2F2"/>
<path d="M249.542 167.526L133.177 197.48C132.51 197.666 131.798 197.592 131.184 197.273C130.57 196.954 130.1 196.414 129.869 195.761C129.761 195.421 129.724 195.061 129.76 194.706C129.796 194.35 129.904 194.006 130.077 193.693C130.25 193.381 130.486 193.107 130.768 192.888C131.051 192.67 131.375 192.511 131.721 192.422L249.455 162.116C252.59 163.704 251.765 166.953 249.542 167.526Z" fill="#F2F2F2"/>
<path d="M256.427 194.272L140.062 224.226C139.395 224.412 138.683 224.338 138.069 224.019C137.455 223.7 136.985 223.16 136.754 222.507C136.646 222.167 136.609 221.807 136.645 221.452C136.681 221.096 136.789 220.752 136.962 220.439C137.135 220.127 137.371 219.853 137.653 219.634C137.936 219.416 138.26 219.257 138.606 219.168L256.34 188.862C259.475 190.45 258.65 193.7 256.427 194.272Z" fill="#F2F2F2"/>
<path d="M252.983 180.895L136.618 210.849C135.952 211.035 135.239 210.961 134.625 210.642C134.011 210.323 133.541 209.783 133.31 209.13C133.202 208.79 133.165 208.431 133.201 208.075C133.237 207.719 133.345 207.375 133.518 207.062C133.692 206.75 133.927 206.476 134.21 206.258C134.492 206.039 134.817 205.88 135.163 205.791L252.896 175.485C256.031 177.073 255.206 180.323 252.983 180.895Z" fill="#F2F2F2"/>
<path d="M259.868 207.642L143.504 237.596C142.837 237.782 142.125 237.708 141.511 237.389C140.896 237.07 140.426 236.53 140.195 235.878C140.088 235.537 140.051 235.178 140.087 234.822C140.122 234.467 140.23 234.122 140.404 233.81C140.577 233.497 140.812 233.223 141.095 233.005C141.378 232.786 141.702 232.627 142.048 232.538L259.781 202.232C262.917 203.82 262.092 207.07 259.868 207.642Z" fill="#F2F2F2"/>
<path d="M136.976 330.686C136.553 330.796 136.106 330.765 135.702 330.598L135.677 330.588L130.386 328.345C130.14 328.241 129.917 328.089 129.73 327.899C129.543 327.709 129.396 327.484 129.296 327.237C129.196 326.99 129.146 326.725 129.148 326.459C129.15 326.192 129.205 325.928 129.31 325.683C129.414 325.438 129.566 325.215 129.756 325.028C129.947 324.842 130.172 324.694 130.419 324.595C130.667 324.495 130.931 324.445 131.198 324.448C131.464 324.451 131.728 324.506 131.973 324.611L135.402 326.069L139.895 315.5C139.999 315.255 140.15 315.033 140.34 314.846C140.53 314.66 140.755 314.513 141.002 314.413C141.249 314.314 141.513 314.264 141.78 314.266C142.046 314.269 142.309 314.323 142.554 314.428H142.555L142.528 314.497L142.556 314.428C143.051 314.639 143.441 315.037 143.642 315.536C143.843 316.035 143.838 316.593 143.628 317.088L138.342 329.515C138.22 329.801 138.033 330.056 137.796 330.258C137.559 330.461 137.279 330.606 136.977 330.683L136.976 330.686Z" fill="white"/>
<path opacity="0.1" d="M461.463 464.677H203.463C194.714 464.668 186.326 461.188 180.14 455.001C173.953 448.815 170.473 440.427 170.463 431.677V128.677C170.473 119.928 173.953 111.54 180.14 105.354C186.326 99.1673 194.714 95.6874 203.463 95.6775H443.49L494.463 136.306V431.677C494.453 440.427 490.974 448.815 484.787 455.001C478.6 461.188 470.212 464.668 461.463 464.677Z" fill="#683AB7"/>
<path d="M412.282 193.282H294.819C293.361 193.282 291.963 192.703 290.933 191.672C289.902 190.642 289.323 189.244 289.323 187.786C289.323 186.329 289.902 184.931 290.933 183.901C291.963 182.87 293.361 182.291 294.819 182.291H412.282C413.74 182.291 415.138 182.87 416.168 183.901C417.199 184.931 417.778 186.329 417.778 187.786C417.778 189.244 417.199 190.642 416.168 191.672C415.138 192.703 413.74 193.282 412.282 193.282Z" fill="#683AB7"/>
<path d="M434.951 211.829H294.819C293.362 211.827 291.966 211.247 290.938 210.216C289.909 209.186 289.331 207.789 289.331 206.333C289.331 204.877 289.909 203.48 290.938 202.45C291.966 201.42 293.362 200.84 294.819 200.838H434.951C435.673 200.837 436.388 200.978 437.056 201.254C437.724 201.53 438.33 201.934 438.841 202.445C439.352 202.955 439.758 203.561 440.035 204.229C440.311 204.896 440.454 205.611 440.454 206.333C440.454 207.056 440.311 207.771 440.035 208.438C439.758 209.105 439.352 209.711 438.841 210.222C438.33 210.732 437.724 211.137 437.056 211.412C436.388 211.688 435.673 211.83 434.951 211.829Z" fill="#683AB7"/>
<path d="M412.283 265.405H294.823C293.366 265.405 291.968 265.984 290.938 267.015C289.907 268.045 289.328 269.443 289.328 270.9C289.328 272.358 289.907 273.755 290.938 274.786C291.968 275.817 293.366 276.395 294.823 276.395H412.283C413.741 276.395 415.138 275.817 416.169 274.786C417.199 273.755 417.778 272.358 417.778 270.9C417.778 269.443 417.199 268.045 416.169 267.015C415.138 265.984 413.741 265.405 412.283 265.405Z" fill="#CCCCCC"/>
<path d="M434.953 283.956H294.823C293.366 283.956 291.968 284.534 290.938 285.565C289.907 286.595 289.328 287.993 289.328 289.451C289.328 290.908 289.907 292.306 290.938 293.336C291.968 294.367 293.366 294.946 294.823 294.946H434.953C436.41 294.946 437.808 294.367 438.839 293.336C439.869 292.306 440.448 290.908 440.448 289.451C440.448 287.993 439.869 286.595 438.839 285.565C437.808 284.534 436.41 283.956 434.953 283.956Z" fill="#CCCCCC"/>
<path d="M412.282 359.517H294.819C293.361 359.517 291.963 358.938 290.933 357.908C289.902 356.877 289.323 355.479 289.323 354.022C289.323 352.564 289.902 351.166 290.933 350.136C291.963 349.105 293.361 348.526 294.819 348.526H412.282C413.74 348.526 415.138 349.105 416.168 350.136C417.199 351.166 417.778 352.564 417.778 354.022C417.778 355.479 417.199 356.877 416.168 357.908C415.138 358.938 413.74 359.517 412.282 359.517Z" fill="#CCCCCC"/>
<path d="M434.951 378.064H294.819C293.362 378.062 291.966 377.482 290.938 376.452C289.909 375.421 289.331 374.025 289.331 372.569C289.331 371.112 289.909 369.716 290.938 368.685C291.966 367.655 293.362 367.075 294.819 367.073H434.951C435.673 367.072 436.388 367.214 437.056 367.489C437.724 367.765 438.33 368.17 438.841 368.68C439.352 369.191 439.758 369.797 440.035 370.464C440.311 371.131 440.454 371.846 440.454 372.569C440.454 373.291 440.311 374.006 440.035 374.673C439.758 375.34 439.352 375.947 438.841 376.457C438.33 376.967 437.724 377.372 437.056 377.648C436.388 377.924 435.673 378.065 434.951 378.064Z" fill="#CCCCCC"/>
<path d="M245.904 216.483C256.631 216.483 265.327 207.787 265.327 197.06C265.327 186.333 256.631 177.637 245.904 177.637C235.177 177.637 226.481 186.333 226.481 197.06C226.481 207.787 235.177 216.483 245.904 216.483Z" fill="#683AB7"/>
<path d="M243.979 204.469C243.542 204.47 243.117 204.329 242.767 204.066L242.746 204.05L238.181 200.558C237.969 200.396 237.791 200.194 237.657 199.964C237.523 199.733 237.436 199.478 237.401 199.214C237.366 198.949 237.383 198.68 237.452 198.423C237.52 198.165 237.639 197.923 237.802 197.712C237.964 197.5 238.166 197.322 238.398 197.189C238.629 197.056 238.884 196.969 239.148 196.934C239.413 196.9 239.681 196.918 239.939 196.987C240.197 197.056 240.438 197.176 240.649 197.339L243.606 199.606L250.593 190.491C250.755 190.28 250.957 190.102 251.187 189.969C251.418 189.836 251.672 189.749 251.936 189.714C252.2 189.68 252.469 189.697 252.726 189.766C252.983 189.835 253.224 189.953 253.435 190.115L253.436 190.116L253.393 190.176L253.437 190.116C253.864 190.444 254.143 190.927 254.213 191.46C254.283 191.993 254.139 192.532 253.812 192.959L245.594 203.676C245.404 203.923 245.16 204.122 244.88 204.26C244.6 204.397 244.293 204.468 243.981 204.467L243.979 204.469Z" fill="white"/>
<path d="M267.323 280.175C267.324 282.726 266.823 285.253 265.847 287.61C264.872 289.967 263.441 292.109 261.638 293.913C259.835 295.717 257.694 297.149 255.337 298.126C252.98 299.102 250.454 299.605 247.903 299.605C247.736 299.609 247.569 299.602 247.403 299.585C243.584 299.488 239.879 298.265 236.751 296.072C233.623 293.879 231.211 290.812 229.818 287.255C228.424 283.698 228.11 279.808 228.916 276.074C229.722 272.34 231.611 268.926 234.347 266.26C237.083 263.593 240.545 261.793 244.299 261.085C248.053 260.376 251.933 260.791 255.452 262.276C258.972 263.761 261.976 266.252 264.087 269.435C266.199 272.619 267.324 276.355 267.323 280.175Z" fill="#CCCCCC"/>
<path d="M245.904 382.718C256.631 382.718 265.327 374.022 265.327 363.295C265.327 352.568 256.631 343.872 245.904 343.872C235.177 343.872 226.481 352.568 226.481 363.295C226.481 374.022 235.177 382.718 245.904 382.718Z" fill="#CCCCCC"/>
<path d="M494.471 137.614H454.542C451.627 137.614 448.832 136.456 446.771 134.395C444.709 132.334 443.552 129.538 443.552 126.623V97.1322C443.552 97.0031 443.588 96.8766 443.656 96.7672C443.725 96.6578 443.823 96.57 443.939 96.5138C444.056 96.4576 444.185 96.4352 444.314 96.4494C444.442 96.4635 444.564 96.5136 444.665 96.5937L494.898 136.389C495.01 136.477 495.091 136.598 495.131 136.735C495.171 136.872 495.167 137.018 495.12 137.153C495.073 137.288 494.986 137.404 494.869 137.487C494.753 137.57 494.614 137.614 494.471 137.614Z" fill="#CCCCCC"/>
<path d="M267.323 280.175C267.324 282.726 266.823 285.253 265.847 287.61C264.872 289.967 263.441 292.109 261.638 293.913C259.835 295.717 257.694 297.149 255.337 298.126C252.98 299.102 250.454 299.605 247.903 299.605C247.736 299.609 247.569 299.602 247.403 299.585C244.894 293.327 243.927 286.556 244.583 279.845C245.239 273.134 247.499 266.68 251.173 261.025C255.692 261.8 259.79 264.147 262.746 267.651C265.701 271.155 267.322 275.591 267.323 280.175Z" fill="#683AB7"/>
<path d="M289.323 270.905C289.326 269.448 289.906 268.05 290.937 267.019C291.968 265.988 293.365 265.408 294.823 265.405H324.093C325.803 268.883 327.018 272.582 327.703 276.395H294.823C293.366 276.395 291.969 275.817 290.938 274.788C289.907 273.758 289.326 272.362 289.323 270.905Z" fill="#683AB7"/>
<path d="M328.383 283.956C328.385 287.667 327.894 291.363 326.923 294.946H294.823C293.366 294.946 291.968 294.367 290.938 293.336C289.907 292.306 289.328 290.908 289.328 289.451C289.328 287.993 289.907 286.595 290.938 285.565C291.968 284.534 293.366 283.956 294.823 283.956H328.383Z" fill="#683AB7"/>
<path d="M400.805 351.733C399.976 353.091 398.642 354.065 397.095 354.44C395.549 354.814 393.917 354.559 392.558 353.731L322.553 311.031C321.881 310.62 321.295 310.081 320.831 309.445C320.366 308.808 320.032 308.087 319.846 307.321C319.661 306.555 319.628 305.76 319.75 304.982C319.871 304.203 320.145 303.457 320.555 302.784C320.966 302.111 321.504 301.526 322.141 301.061C322.777 300.597 323.499 300.262 324.265 300.077C325.031 299.891 325.826 299.859 326.604 299.98C327.383 300.102 328.129 300.376 328.802 300.786L398.807 343.486C400.166 344.315 401.139 345.649 401.514 347.196C401.889 348.742 401.634 350.374 400.805 351.733Z" fill="#683AB7"/>
<path d="M330.8 309.033C325.856 317.137 318.621 323.594 310.007 327.587C301.394 331.579 291.79 332.928 282.411 331.462C273.031 329.996 264.297 325.782 257.312 319.352C250.327 312.922 245.406 304.566 243.171 295.339C240.936 286.113 241.487 276.43 244.754 267.517C248.022 258.603 253.859 250.859 261.528 245.263C269.197 239.667 278.353 236.471 287.838 236.078C297.323 235.686 306.712 238.115 314.817 243.059C325.674 249.698 333.454 260.373 336.45 272.741C339.447 285.109 337.415 298.161 330.8 309.033ZM259.088 265.291C255.38 271.369 253.558 278.411 253.852 285.525C254.147 292.639 256.544 299.506 260.741 305.258C264.938 311.009 270.746 315.387 277.431 317.838C284.116 320.289 291.378 320.702 298.298 319.025C305.218 317.349 311.485 313.658 316.308 308.42C321.13 303.181 324.291 296.63 325.39 289.596C326.489 282.561 325.478 275.358 322.483 268.898C319.489 262.438 314.647 257.011 308.568 253.304C300.414 248.343 290.625 246.819 281.349 249.066C272.073 251.313 264.067 257.148 259.088 265.291Z" fill="#683AB7"/>
</svg>
